<svg width="14" height="14" viewBox="0 0 14 14" fill="none" xmlns="http://www.w3.org/2000/svg">
<path d="M7.15186 13.8357C8.09376 13.8357 8.97748 13.6586 9.80303 13.3044C10.6286 12.9503 11.3558 12.4564 11.9846 11.8228C12.6135 11.1891 13.1066 10.46 13.464 9.6355C13.8213 8.81095 14 7.93107 14 6.99585C14 6.06063 13.8213 5.18075 13.464 4.3562C13.1066 3.53166 12.6121 2.80396 11.9805 2.1731C11.3489 1.54224 10.6203 1.04972 9.79472 0.695557C8.96917 0.34139 8.08545 0.164307 7.14355 0.164307C6.2072 0.164307 5.32624 0.34139 4.5007 0.695557C3.67515 1.04972 2.94795 1.54224 2.3191 2.1731C1.69024 2.80396 1.19713 3.53166 0.839762 4.3562C0.482395 5.18075 0.303711 6.06063 0.303711 6.99585C0.303711 7.93107 0.482395 8.81095 0.839762 9.6355C1.19713 10.46 1.69163 11.1891 2.32325 11.8228C2.95488 12.4564 3.68346 12.9503 4.50901 13.3044C5.33455 13.6586 6.21551 13.8357 7.15186 13.8357Z" fill="#3C3C43" fill-opacity="0.18"/>
<path d="M7.156 9.51929C6.8485 9.51929 6.57009 9.38924 6.32076 9.12915L3.81088 6.4397C3.68345 6.30135 3.61835 6.13949 3.61558 5.9541C3.6128 5.76872 3.6696 5.61515 3.78595 5.49341C3.93 5.34953 4.09622 5.27759 4.2846 5.27759C4.47298 5.27759 4.63089 5.34676 4.75832 5.48511L7.15185 8.05005L9.55369 5.48511C9.68112 5.34676 9.83903 5.27897 10.0274 5.28174C10.2158 5.28451 10.3792 5.35506 10.5177 5.49341C10.6396 5.60962 10.6992 5.7618 10.6964 5.94995C10.6937 6.1381 10.6258 6.30135 10.4928 6.4397L7.99125 9.12915C7.74192 9.38924 7.46351 9.51929 7.156 9.51929Z" fill="#3C3C43" fill-opacity="0.6"/>
</svg>
