<svg width="52" height="52" viewBox="0 0 52 52" fill="none" xmlns="http://www.w3.org/2000/svg">
<path d="M52 26C52 40.3594 40.3594 52 26 52C11.6406 52 0 40.3594 0 26C0 11.6406 11.6406 0 26 0C40.3594 0 52 11.6406 52 26Z" fill="#32ADE6"/>
<path d="M26 36C31.5228 36 36 31.5228 36 26C36 20.4772 31.5228 16 26 16C20.4772 16 16 20.4772 16 26C16 31.5228 20.4772 36 26 36Z" fill="white" stroke="white" stroke-width="2" stroke-linecap="round" stroke-linejoin="round"/>
<path d="M30.24 21.7598L28.12 28.1198L21.76 30.2398L23.88 23.8798L30.24 21.7598Z" fill="#32ADE6" stroke="#32ADE6" stroke-width="2" stroke-linecap="round" stroke-linejoin="round"/>
</svg>
