<svg width="24" height="24" viewBox="0 0 24 24" fill="none" xmlns="http://www.w3.org/2000/svg">
<path d="M23 4V10H17" stroke="white" stroke-width="2" stroke-linecap="round" stroke-linejoin="round"/>
<path d="M20.4899 15C19.8399 16.8399 18.6094 18.4187 16.984 19.4985C15.3586 20.5783 13.4263 21.1006 11.4783 20.9866C9.53026 20.8726 7.67203 20.1286 6.18363 18.8667C4.69524 17.6047 3.6573 15.8932 3.22625 13.9901C2.79519 12.0869 2.99436 10.0952 3.79374 8.31508C4.59313 6.53496 5.94942 5.06288 7.65823 4.12065C9.36705 3.17843 11.3358 2.81711 13.2678 3.09116C15.1999 3.3652 16.9905 4.25975 18.3699 5.64001L22.9999 10" stroke="white" stroke-width="2" stroke-linecap="round" stroke-linejoin="round"/>
<path d="M11.6328 16.1172C10.0273 16.1172 8.82031 15.1328 8.76172 13.7852H10.0156C10.0859 14.5117 10.7773 15.0391 11.6328 15.0391C12.6641 15.0391 13.4023 14.2891 13.4023 13.2812C13.4023 12.25 12.6406 11.5 11.5742 11.4883C10.8945 11.4883 10.3789 11.7109 10.0859 12.2383H8.86719L9.41797 7.51562H14.2227V8.61719H10.4844L10.2031 10.9961H10.2852C10.6367 10.6562 11.2344 10.4219 11.8789 10.4219C13.4727 10.4219 14.6562 11.6055 14.6562 13.2461C14.6562 14.9219 13.4023 16.1172 11.6328 16.1172Z" fill="white"/>
</svg>
