<svg width="24" height="24" viewBox="0 0 24 24" fill="none" xmlns="http://www.w3.org/2000/svg">
<path d="M1 4V10H7" stroke="white" stroke-width="2" stroke-linecap="round" stroke-linejoin="round"/>
<path d="M3.51 15.0004C4.15839 16.8408 5.38734 18.4206 7.01166 19.5018C8.63598 20.583 10.5677 21.107 12.5157 20.9949C14.4637 20.8828 16.3226 20.1406 17.8121 18.8802C19.3017 17.6198 20.3413 15.9094 20.7742 14.0068C21.2072 12.1042 21.0101 10.1124 20.2126 8.33154C19.4152 6.55068 18.0605 5.07723 16.3528 4.1332C14.6451 3.18917 12.6769 2.8257 10.7447 3.09755C8.81245 3.36941 7.02091 4.26186 5.64 5.64044L1 10.0004" stroke="white" stroke-width="2" stroke-linecap="round" stroke-linejoin="round"/>
<path d="M11.6328 16.1172C10.0273 16.1172 8.82031 15.1328 8.76172 13.7852H10.0156C10.0859 14.5117 10.7773 15.0391 11.6328 15.0391C12.6641 15.0391 13.4023 14.2891 13.4023 13.2812C13.4023 12.25 12.6406 11.5 11.5742 11.4883C10.8945 11.4883 10.3789 11.7109 10.0859 12.2383H8.86719L9.41797 7.51562H14.2227V8.61719H10.4844L10.2031 10.9961H10.2852C10.6367 10.6562 11.2344 10.4219 11.8789 10.4219C13.4727 10.4219 14.6562 11.6055 14.6562 13.2461C14.6562 14.9219 13.4023 16.1172 11.6328 16.1172Z" fill="white"/>
</svg>
