<svg width="51" height="20" viewBox="0 0 51 20" fill="none" xmlns="http://www.w3.org/2000/svg">
<path d="M6.61289 5.36328V6.42969H2.59336V8.31641H6.19102V9.34766H2.59336V11.5273C4.32773 11.5215 5.65195 11.4629 7.17539 11.2109L7.3043 12.2656C5.64023 12.5234 4.15195 12.582 2.19492 12.582H1.3043V5.36328H6.61289ZM9.54258 4.44922V15.043H8.23008V4.44922H9.54258ZM19.7715 4.46094V11.5742H18.5293V4.46094H19.7715ZM17.6152 4.63672V10.625H16.373V8.49219H14.6504C14.0234 9.66992 12.9453 10.6191 11.2754 11.3398L10.6543 10.4023C12.0137 9.82812 12.9043 9.11328 13.4434 8.25781L10.9004 8.53906L10.7246 7.47266L13.8887 7.30859C13.9766 6.99805 14.041 6.67578 14.0762 6.33594H11.1934V5.28125H15.3535C15.3535 6.05469 15.2656 6.77539 15.0723 7.4375H16.373V4.63672H17.6152ZM16.7598 11.2344C16.7598 12.4883 18.1426 13.6836 20.2871 13.9766L19.7832 14.9844C18.1016 14.7266 16.7891 13.9473 16.127 12.8633C15.4648 13.9473 14.1406 14.7266 12.4707 14.9844L11.9434 13.9766C14.0996 13.6836 15.4707 12.4883 15.4824 11.2344V10.9648H16.7598V11.2344ZM28.9926 4.44922V7.13281H30.4691V8.22266H28.9926V10.8359H27.6918V4.44922H28.9926ZM28.9926 11.3398V14.9141H22.1488V11.3398H28.9926ZM23.4379 12.3711V13.8594H27.7035V12.3711H23.4379ZM26.9301 5.46875V6.51172H20.6488V5.46875H23.1449V4.37891H24.4457V5.46875H26.9301ZM23.7895 6.89844C25.3246 6.89844 26.3676 7.67188 26.3793 8.79688C26.3676 9.93359 25.3246 10.6953 23.7895 10.6953C22.2426 10.6953 21.1879 9.93359 21.1879 8.79688C21.1879 7.67188 22.2426 6.89844 23.7895 6.89844ZM23.7895 7.88281C22.9809 7.88281 22.4535 8.22266 22.4535 8.79688C22.4535 9.38281 22.9809 9.72266 23.7895 9.72266C24.598 9.72266 25.1371 9.38281 25.1371 8.79688C25.1371 8.22266 24.598 7.88281 23.7895 7.88281Z" fill="#7E7E7E"/>
<path d="M38.5 15L43.5 10L38.5 5" stroke="#7E7E7E" stroke-width="1.66667" stroke-linecap="round" stroke-linejoin="round"/>
</svg>
