<svg width="52" height="52" viewBox="0 0 52 52" fill="none" xmlns="http://www.w3.org/2000/svg">
<path d="M52 26C52 40.3594 40.3594 52 26 52C11.6406 52 0 40.3594 0 26C0 11.6406 11.6406 0 26 0C40.3594 0 52 11.6406 52 26Z" fill="#32ADE6"/>
<path d="M26 16L17 23V34C17 34.5304 17.2107 35.0391 17.5858 35.4142C17.9609 35.7893 18.4696 36 19 36H23V29C23 27.3431 24.3431 26 26 26C27.6569 26 29 27.3431 29 29V36H33C33.5304 36 34.0391 35.7893 34.4142 35.4142C34.7893 35.0391 35 34.5304 35 34V23L26 16Z" fill="white" stroke="white" stroke-width="2" stroke-linecap="round" stroke-linejoin="round"/>
</svg>
