<svg width="12" height="12" viewBox="0 0 12 12" fill="none" xmlns="http://www.w3.org/2000/svg">
<g clip-path="url(#clip0_3968_5566)">
<path d="M8.5 1H3.5C2.11929 1 1 2.11929 1 3.5V8.5C1 9.88071 2.11929 11 3.5 11H8.5C9.88071 11 11 9.88071 11 8.5V3.5C11 2.11929 9.88071 1 8.5 1Z" stroke="#007AFF" stroke-linecap="round" stroke-linejoin="round"/>
<path d="M8.0001 5.68515C8.0618 6.10127 7.99073 6.52626 7.79698 6.89966C7.60323 7.27306 7.29667 7.57586 6.92091 7.76499C6.54515 7.95412 6.11932 8.01995 5.70399 7.95312C5.28866 7.88628 4.90498 7.69019 4.60752 7.39273C4.31006 7.09527 4.11396 6.71159 4.04713 6.29626C3.9803 5.88093 4.04613 5.4551 4.23526 5.07934C4.42439 4.70358 4.72719 4.39702 5.10059 4.20327C5.47399 4.00952 5.89897 3.93844 6.3151 4.00015C6.73956 4.06309 7.13252 4.26088 7.43594 4.5643C7.73937 4.86773 7.93716 5.26069 8.0001 5.68515Z" stroke="#007AFF" stroke-linecap="round" stroke-linejoin="round"/>
<path d="M8.75 3.25H8.755" stroke="#007AFF" stroke-linecap="round" stroke-linejoin="round"/>
</g>
<defs>
<clipPath id="clip0_3968_5566">
<rect width="12" height="12" fill="white"/>
</clipPath>
</defs>
</svg>
