<svg width="24" height="24" viewBox="0 0 24 24" fill="none" xmlns="http://www.w3.org/2000/svg">
<g clip-path="url(#clip0_1365_4924)">
<circle cx="12" cy="12" r="12" fill="#FEE500"/>
<path d="M11.8869 6.53613C8.29615 6.53613 5.40039 8.85272 5.40039 11.6651C5.40039 13.4906 6.60503 15.089 8.41199 16.0018L7.8004 18.286C7.78887 18.3202 7.78709 18.3569 7.79528 18.3921C7.80346 18.4273 7.82128 18.4595 7.84673 18.4852C7.88385 18.5179 7.93161 18.536 7.9811 18.5361C8.02213 18.5328 8.06106 18.5166 8.09229 18.4898L10.724 16.7153C11.1124 16.7689 11.504 16.7968 11.8962 16.7987C15.4823 16.7987 18.3827 14.4821 18.3827 11.6651C18.3827 8.84809 15.473 6.53613 11.8869 6.53613Z" fill="#392020"/>
</g>
<defs>
<clipPath id="clip0_1365_4924">
<rect width="24" height="24" fill="white"/>
</clipPath>
</defs>
</svg>
