<svg width="24" height="24" viewBox="0 0 24 24" fill="none" xmlns="http://www.w3.org/2000/svg">
<path d="M11.629 3.09949C11.9241 3.09949 12.207 3.2167 12.4157 3.42533C12.6243 3.63396 12.7415 3.91693 12.7415 4.21198V10.5161H19.0456C19.3407 10.5161 19.6237 10.6333 19.8323 10.842C20.0409 11.0506 20.1581 11.3336 20.1581 11.6286C20.1581 11.9237 20.0409 12.2067 19.8323 12.4153C19.6237 12.6239 19.3407 12.7411 19.0456 12.7411H12.7415V19.0453C12.7415 19.3403 12.6243 19.6233 12.4157 19.8319C12.207 20.0406 11.9241 20.1578 11.629 20.1578C11.3339 20.1578 11.051 20.0406 10.8423 19.8319C10.6337 19.6233 10.5165 19.3403 10.5165 19.0453V12.7411H4.21235C3.9173 12.7411 3.63433 12.6239 3.4257 12.4153C3.21706 12.2067 3.09985 11.9237 3.09985 11.6286C3.09985 11.3336 3.21706 11.0506 3.4257 10.842C3.63433 10.6333 3.9173 10.5161 4.21235 10.5161H10.5165V4.21198C10.5165 3.91693 10.6337 3.63396 10.8423 3.42533C11.051 3.2167 11.3339 3.09949 11.629 3.09949Z" fill="white"/>
</svg>
