<svg width="52" height="52" viewBox="0 0 52 52" fill="none" xmlns="http://www.w3.org/2000/svg">
<path d="M52 26C52 40.3594 40.3594 52 26 52C11.6406 52 0 40.3594 0 26C0 11.6406 11.6406 0 26 0C40.3594 0 52 11.6406 52 26Z" fill="#32ADE6"/>
<path fill-rule="evenodd" clip-rule="evenodd" d="M31.9182 32.9873C31.8634 32.9956 31.8073 33 31.7501 33H21.2501C21.1163 33 20.9884 32.9762 20.8708 32.9328C18.1104 32.5189 16 30.2448 16 27.5C16 24.8185 18.0144 22.5858 20.6812 22.0986C21.684 19.698 24.1452 18 27.025 18C30.7081 18 33.7098 20.7785 33.8452 24.2547C35.6831 24.8713 37 26.5386 37 28.5C37 30.9852 34.8845 32.9999 32.275 32.9999C32.1551 32.9999 32.0361 32.9957 31.9182 32.9873Z" fill="white" stroke="white" stroke-width="2" stroke-linejoin="round"/>
</svg>
