<svg width="25" height="25" viewBox="0 0 25 25" fill="none" xmlns="http://www.w3.org/2000/svg">
<rect width="25" height="25" fill="white"/>
<path d="M22.5 17.5C22.5 18.6046 21.6046 19.5 20.5 19.5L4.5 19.5C3.39543 19.5 2.5 18.6046 2.5 17.5L2.5 6.5C2.5 5.39543 3.39543 4.5 4.5 4.5L20.5 4.5C21.6046 4.5 22.5 5.39543 22.5 6.5L22.5 8.25C22.5 8.38807 22.3876 8.49874 22.2502 8.51196C20.7102 8.66007 19.5 10.1651 19.5 12C19.5 13.8349 20.7102 15.3399 22.2502 15.488C22.3876 15.5013 22.5 15.6119 22.5 15.75L22.5 17.5Z" fill="#333333"/>
<path d="M3.5 17.5L2.5 17.5L2.5 6.5L3.5 6.5L3.5 17.5ZM4.5 18.5L20.5 18.5C21.0523 18.5 21.5 18.0523 21.5 17.5L21.5 16.3613C19.6964 15.8499 18.5 13.9871 18.5 12C18.5 10.0129 19.6964 8.15007 21.5 7.63867L21.5 6.5C21.5 5.94772 21.0523 5.5 20.5 5.5L4.5 5.5C3.94772 5.5 3.5 5.94771 3.5 6.5L2.5 6.5C2.5 5.39543 3.39543 4.5 4.5 4.5L20.5 4.5C21.6046 4.5 22.5 5.39543 22.5 6.5L22.5 8.25C22.5 8.38807 22.3876 8.49874 22.2502 8.51196C20.7102 8.66007 19.5 10.1651 19.5 12C19.5 13.8349 20.7102 15.3399 22.2502 15.488C22.3876 15.5013 22.5 15.6119 22.5 15.75L22.5 17.5C22.5 18.6046 21.6046 19.5 20.5 19.5L4.5 19.5C3.39543 19.5 2.5 18.6046 2.5 17.5L3.5 17.5C3.5 18.0523 3.94772 18.5 4.5 18.5Z" fill="#333333"/>
<path d="M14.5 4.5L14.5 19.5" stroke="#DCDCDC" stroke-dasharray="2 2"/>
</svg>
