<svg width="12" height="12" viewBox="0 0 12 12" fill="none" xmlns="http://www.w3.org/2000/svg">
<path d="M11.2703 3.21C11.2109 2.9727 11.0899 2.75529 10.9196 2.5797C10.7493 2.40412 10.5357 2.27659 10.3003 2.21C9.44029 2 6.00029 2 6.00029 2C6.00029 2 2.56029 2 1.70029 2.23C1.46491 2.29659 1.25127 2.42412 1.08096 2.5997C0.910644 2.77529 0.78968 2.9927 0.730286 3.23C0.572893 4.10278 0.495904 4.98815 0.500286 5.875C0.494675 6.76852 0.57167 7.66065 0.730286 8.54C0.795765 8.76992 0.919439 8.97907 1.08936 9.14724C1.25928 9.31541 1.4697 9.43691 1.70029 9.5C2.56029 9.73 6.00029 9.73 6.00029 9.73C6.00029 9.73 9.44029 9.73 10.3003 9.5C10.5357 9.43341 10.7493 9.30588 10.9196 9.1303C11.0899 8.95471 11.2109 8.7373 11.2703 8.5C11.4265 7.63379 11.5034 6.75517 11.5003 5.875C11.5059 4.98148 11.4289 4.08935 11.2703 3.21Z" stroke="#C5C5C7" stroke-linecap="round" stroke-linejoin="round"/>
<path d="M4.875 7.51023L7.75 5.87523L4.875 4.24023V7.51023Z" stroke="#C5C5C7" stroke-linecap="round" stroke-linejoin="round"/>
</svg>
