<svg width="52" height="52" viewBox="0 0 52 52" fill="none" xmlns="http://www.w3.org/2000/svg">
<rect width="52" height="52" rx="26" fill="#007AFF"/>
<path d="M13.418 34.0312C13.9883 34.0312 14.4805 34.2422 14.8164 34.5938H16.5039V33.6328H17.3711V37.7891H16.5039V36.8906H14.8164C14.4805 37.2422 13.9844 37.4492 13.418 37.4453C12.3555 37.4531 11.5508 36.7344 11.5508 35.7422C11.5508 34.7422 12.3555 34.0312 13.418 34.0312ZM13.418 34.7734C12.8086 34.7734 12.3789 35.1484 12.3789 35.7422C12.3789 36.3203 12.8086 36.7109 13.418 36.7109C14.0039 36.7109 14.4336 36.3203 14.4414 35.7422C14.4336 35.1484 14.0039 34.7734 13.418 34.7734ZM14.9805 37.9375C16.4648 37.9375 17.3945 38.4453 17.3945 39.3125C17.3945 40.1797 16.4648 40.6875 14.9805 40.6875C13.5039 40.6875 12.5742 40.1797 12.582 39.3125C12.5742 38.4453 13.5039 37.9375 14.9805 37.9375ZM14.9805 38.6016C13.9961 38.6016 13.4258 38.8516 13.4336 39.3125C13.4258 39.7578 13.9961 40.0078 14.9805 40.0078C15.9805 40.0078 16.543 39.7578 16.543 39.3125C16.543 38.8516 15.9805 38.6016 14.9805 38.6016ZM15.207 35.2891C15.2461 35.4336 15.2695 35.582 15.2695 35.7422C15.2695 35.8984 15.2461 36.0469 15.2148 36.1875H16.5039V35.2891H15.207ZM20.8711 34.7578C20.8711 35.6484 21.4492 36.4844 22.5352 36.8281L22.0664 37.5078C21.3047 37.25 20.7578 36.7344 20.457 36.0781C20.1445 36.8281 19.5742 37.418 18.7617 37.7031L18.293 37.0234C19.4336 36.625 19.9961 35.6875 20.0039 34.6797V34.0078H20.8711V34.7578ZM23.9414 33.6328V35.3516H24.9258V36.0703H23.9414V37.8594H23.0742V33.6328H23.9414ZM21.6445 38.0156C23.1055 38.0078 24.0039 38.5078 24.0117 39.3438C24.0039 40.1953 23.1055 40.6875 21.6445 40.6875C20.168 40.6875 19.2539 40.1953 19.2539 39.3438C19.2539 38.5078 20.168 38.0078 21.6445 38.0156ZM21.6445 38.6953C20.6758 38.6953 20.1211 38.9297 20.1211 39.3438C20.1211 39.7812 20.6758 40 21.6445 40C22.6133 40 23.1523 39.7812 23.1523 39.3438C23.1523 38.9297 22.6133 38.6953 21.6445 38.6953ZM31.2617 34.1641V34.8047H29.8164C29.8711 35.2344 30.4688 35.5977 31.418 35.7031L31.1289 36.3359C30.293 36.2266 29.6914 35.9102 29.3867 35.4688C29.0781 35.9336 28.4648 36.2695 27.6133 36.3984L27.3242 35.7734C28.2891 35.6562 28.8906 35.2617 28.9492 34.8047H27.5039V34.1641H28.9492V33.6172H29.8086V34.1641H31.2617ZM29.8086 36.1094V36.7188C30.3906 36.6953 30.9766 36.6523 31.5195 36.5859L31.582 37.1797C30.1211 37.4141 28.4961 37.4297 27.2617 37.4297L27.168 36.7734C27.7031 36.7734 28.3125 36.7695 28.9492 36.75V36.1094H29.8086ZM32.7773 37.8359V39.5078H28.9414V39.9844H33.0273V40.6328H28.0742V38.9141H31.9102V38.4688H28.0586V37.8359H32.7773ZM32.7773 33.6328V35.2031H33.7305V35.9141H32.7773V37.5625H31.9102V33.6328H32.7773ZM36.0586 34.0312C36.6289 34.0312 37.1211 34.2422 37.457 34.5938H39.1445V33.6328H40.0117V37.7891H39.1445V36.8906H37.457C37.1211 37.2422 36.625 37.4492 36.0586 37.4453C34.9961 37.4531 34.1914 36.7344 34.1914 35.7422C34.1914 34.7422 34.9961 34.0312 36.0586 34.0312ZM36.0586 34.7734C35.4492 34.7734 35.0195 35.1484 35.0195 35.7422C35.0195 36.3203 35.4492 36.7109 36.0586 36.7109C36.6445 36.7109 37.0742 36.3203 37.082 35.7422C37.0742 35.1484 36.6445 34.7734 36.0586 34.7734ZM37.6211 37.9375C39.1055 37.9375 40.0352 38.4453 40.0352 39.3125C40.0352 40.1797 39.1055 40.6875 37.6211 40.6875C36.1445 40.6875 35.2148 40.1797 35.2227 39.3125C35.2148 38.4453 36.1445 37.9375 37.6211 37.9375ZM37.6211 38.6016C36.6367 38.6016 36.0664 38.8516 36.0742 39.3125C36.0664 39.7578 36.6367 40.0078 37.6211 40.0078C38.6211 40.0078 39.1836 39.7578 39.1836 39.3125C39.1836 38.8516 38.6211 38.6016 37.6211 38.6016ZM37.8477 35.2891C37.8867 35.4336 37.9102 35.582 37.9102 35.7422C37.9102 35.8984 37.8867 36.0469 37.8555 36.1875H39.1445V35.2891H37.8477Z" fill="white"/>
<path d="M35 24.9374V16.9374C34.9996 16.5867 34.9071 16.2422 34.7315 15.9386C34.556 15.6349 34.3037 15.3828 34 15.2074L27 11.2074C26.696 11.0319 26.3511 10.9395 26 10.9395C25.6489 10.9395 25.304 11.0319 25 11.2074L18 15.2074C17.6963 15.3828 17.444 15.6349 17.2685 15.9386C17.0929 16.2422 17.0004 16.5867 17 16.9374V24.9374C17.0004 25.2881 17.0929 25.6326 17.2685 25.9362C17.444 26.2399 17.6963 26.492 18 26.6674L25 30.6674C25.304 30.8429 25.6489 30.9354 26 30.9354C26.3511 30.9354 26.696 30.8429 27 30.6674L34 26.6674C34.3037 26.492 34.556 26.2399 34.7315 25.9362C34.9071 25.6326 34.9996 25.2881 35 24.9374Z" stroke="white" stroke-width="2" stroke-linecap="round" stroke-linejoin="round"/>
<path d="M17.27 15.96L26 21.01L34.73 15.96" stroke="white" stroke-width="2" stroke-linecap="round" stroke-linejoin="round"/>
<path d="M26 31.08V21" stroke="white" stroke-width="2" stroke-linecap="round" stroke-linejoin="round"/>
</svg>
