<svg width="52" height="52" viewBox="0 0 52 52" fill="none" xmlns="http://www.w3.org/2000/svg">
<rect width="52" height="52" rx="26" fill="#007AFF"/>
<path d="M10.4609 34.0312C11.0312 34.0312 11.5234 34.2422 11.8594 34.5938H13.5469V33.6328H14.4141V37.7891H13.5469V36.8906H11.8594C11.5234 37.2422 11.0273 37.4492 10.4609 37.4453C9.39844 37.4531 8.59375 36.7344 8.59375 35.7422C8.59375 34.7422 9.39844 34.0312 10.4609 34.0312ZM10.4609 34.7734C9.85156 34.7734 9.42188 35.1484 9.42188 35.7422C9.42188 36.3203 9.85156 36.7109 10.4609 36.7109C11.0469 36.7109 11.4766 36.3203 11.4844 35.7422C11.4766 35.1484 11.0469 34.7734 10.4609 34.7734ZM12.0234 37.9375C13.5078 37.9375 14.4375 38.4453 14.4375 39.3125C14.4375 40.1797 13.5078 40.6875 12.0234 40.6875C10.5469 40.6875 9.61719 40.1797 9.625 39.3125C9.61719 38.4453 10.5469 37.9375 12.0234 37.9375ZM12.0234 38.6016C11.0391 38.6016 10.4688 38.8516 10.4766 39.3125C10.4688 39.7578 11.0391 40.0078 12.0234 40.0078C13.0234 40.0078 13.5859 39.7578 13.5859 39.3125C13.5859 38.8516 13.0234 38.6016 12.0234 38.6016ZM12.25 35.2891C12.2891 35.4336 12.3125 35.582 12.3125 35.7422C12.3125 35.8984 12.2891 36.0469 12.2578 36.1875H13.5469V35.2891H12.25ZM17.9141 34.7578C17.9141 35.6484 18.4922 36.4844 19.5781 36.8281L19.1094 37.5078C18.3477 37.25 17.8008 36.7344 17.5 36.0781C17.1875 36.8281 16.6172 37.418 15.8047 37.7031L15.3359 37.0234C16.4766 36.625 17.0391 35.6875 17.0469 34.6797V34.0078H17.9141V34.7578ZM20.9844 33.6328V35.3516H21.9688V36.0703H20.9844V37.8594H20.1172V33.6328H20.9844ZM18.6875 38.0156C20.1484 38.0078 21.0469 38.5078 21.0547 39.3438C21.0469 40.1953 20.1484 40.6875 18.6875 40.6875C17.2109 40.6875 16.2969 40.1953 16.2969 39.3438C16.2969 38.5078 17.2109 38.0078 18.6875 38.0156ZM18.6875 38.6953C17.7188 38.6953 17.1641 38.9297 17.1641 39.3438C17.1641 39.7812 17.7188 40 18.6875 40C19.6562 40 20.1953 39.7812 20.1953 39.3438C20.1953 38.9297 19.6562 38.6953 18.6875 38.6953ZM26.1875 33.9453C27.1016 33.9375 27.8203 34.4648 28 35.2422H29.2734V33.6328H30.1406V37.4219H29.2734V35.9453H28.0078C27.832 36.7383 27.1055 37.2734 26.1875 37.2734C25.1016 37.2734 24.3203 36.5781 24.3203 35.6016C24.3203 34.6406 25.1016 33.9375 26.1875 33.9453ZM26.1875 34.6719C25.5781 34.6719 25.1484 35.0312 25.1484 35.6016C25.1484 36.1641 25.5781 36.5391 26.1875 36.5391C26.7812 36.5391 27.2031 36.1641 27.2109 35.6016C27.2031 35.0312 26.7812 34.6719 26.1875 34.6719ZM26.3438 37.75V38.5H29.2734V37.75H30.1406V40.6094H25.4844V37.75H26.3438ZM26.3438 39.9062H29.2734V39.1719H26.3438V39.9062ZM37.5938 39.1562V39.875H31.1406V39.1562H33.9219V38.0078H31.9062V35.6953H35.9688V34.8203H31.8906V34.1172H36.8281V36.3828H32.7734V37.2969H36.9922V38.0078H34.7812V39.1562H37.5938ZM43.7891 36.9453V37.6406H38.8359V34.25H43.7344V34.9531H39.6953V36.9453H43.7891ZM44.5078 39.0781V39.7969H38.0547V39.0781H44.5078Z" fill="white"/>
<path d="M29 12H33C33.5304 12 34.0391 12.2107 34.4142 12.5858C34.7893 12.9609 35 13.4696 35 14V28C35 28.5304 34.7893 29.0391 34.4142 29.4142C34.0391 29.7893 33.5304 30 33 30H29" stroke="white" stroke-width="2" stroke-linecap="round" stroke-linejoin="round"/>
<path d="M24 26L29 21L24 16" stroke="white" stroke-width="2" stroke-linecap="round" stroke-linejoin="round"/>
<path d="M29 21H17" stroke="white" stroke-width="2" stroke-linecap="round" stroke-linejoin="round"/>
</svg>
