<svg width="15" height="15" viewBox="0 0 15 15" fill="none" xmlns="http://www.w3.org/2000/svg">
<path d="M14.0879 4.0125C14.0136 3.71588 13.8624 3.44411 13.6495 3.22463C13.4366 3.00515 13.1696 2.84574 12.8754 2.7625C11.8004 2.5 7.50036 2.5 7.50036 2.5C7.50036 2.5 3.20036 2.5 2.12536 2.7875C1.83114 2.87074 1.56409 3.03015 1.3512 3.24963C1.1383 3.46911 0.9871 3.74088 0.912857 4.0375C0.716116 5.12847 0.61988 6.23519 0.625357 7.34375C0.618344 8.46065 0.714587 9.57581 0.912857 10.675C0.994707 10.9624 1.1493 11.2238 1.3617 11.434C1.5741 11.6443 1.83712 11.7961 2.12536 11.875C3.20036 12.1625 7.50036 12.1625 7.50036 12.1625C7.50036 12.1625 11.8004 12.1625 12.8754 11.875C13.1696 11.7918 13.4366 11.6323 13.6495 11.4129C13.8624 11.1934 14.0136 10.9216 14.0879 10.625C14.2831 9.54224 14.3793 8.44396 14.3754 7.34375C14.3824 6.22685 14.2861 5.11169 14.0879 4.0125Z" stroke="#8E8E93" stroke-width="1.25" stroke-linecap="round" stroke-linejoin="round"/>
<path d="M6.09375 9.38828L9.6875 7.34453L6.09375 5.30078V9.38828Z" stroke="#8E8E93" stroke-width="1.25" stroke-linecap="round" stroke-linejoin="round"/>
</svg>
